<?xml version="1.0" encoding="UTF-8"?>
<!DOCTYPE svg PUBLIC "-//W3C//DTD SVG 1.1//EN" "http://www.w3.org/Graphics/SVG/1.1/DTD/svg11.dtd">
<svg xmlns="http://www.w3.org/2000/svg" version="1.1" width="256px" height="256px" style="shape-rendering:geometricPrecision; text-rendering:geometricPrecision; image-rendering:optimizeQuality; fill-rule:evenodd; clip-rule:evenodd" xmlns:xlink="http://www.w3.org/1999/xlink">
<g><path style="opacity:0.983" fill="#0076b7" d="M 15.5,-0.5 C 90.1667,-0.5 164.833,-0.5 239.5,-0.5C 242.404,1.29483 245.404,3.12816 248.5,5C 251.241,8.34109 253.574,11.8411 255.5,15.5C 255.5,90.1667 255.5,164.833 255.5,239.5C 253.705,242.404 251.872,245.404 250,248.5C 246.659,251.241 243.159,253.574 239.5,255.5C 164.833,255.5 90.1667,255.5 15.5,255.5C 12.5964,253.705 9.59643,251.872 6.5,250C 3.75902,246.659 1.42568,243.159 -0.5,239.5C -0.5,164.833 -0.5,90.1667 -0.5,15.5C 1.29483,12.5964 3.12816,9.59643 5,6.5C 8.34109,3.75902 11.8411,1.42568 15.5,-0.5 Z M 51.5,28.5 C 72.7967,27.2999 83.63,37.2999 84,58.5C 79.7688,75.3818 68.9355,82.8818 51.5,81C 33.1901,73.7249 27.3567,60.8916 34,42.5C 38.2649,35.7211 44.0982,31.0544 51.5,28.5 Z M 168.5,92.5 C 187.762,89.0327 203.929,94.366 217,108.5C 224.569,121.773 228.235,136.106 228,151.5C 228.971,175.896 228.637,200.23 227,224.5C 226.25,225.126 225.416,225.626 224.5,226C 212.833,226.667 201.167,226.667 189.5,226C 187.462,224.764 186.295,222.931 186,220.5C 185.667,195.833 185.333,171.167 185,146.5C 181.863,131.507 172.696,125.341 157.5,128C 148.523,130.982 143.023,137.148 141,146.5C 140.029,172.546 139.029,198.546 138,224.5C 137.5,225 137,225.5 136.5,226C 124.454,226.812 112.454,226.646 100.5,225.5C 99.8076,224.975 99.3076,224.308 99,223.5C 98.1724,181.125 98.3391,138.792 99.5,96.5C 100.025,95.8076 100.692,95.3076 101.5,95C 113.167,94.3333 124.833,94.3333 136.5,95C 137.701,95.9025 138.535,97.0692 139,98.5C 139.333,102.5 139.667,106.5 140,110.5C 147.069,100.554 156.569,94.5542 168.5,92.5 Z M 40.5,94.5 C 51.8382,94.3335 63.1716,94.5001 74.5,95C 76.259,96.008 77.4257,97.508 78,99.5C 78.6667,140.167 78.6667,180.833 78,221.5C 77.4257,223.492 76.259,224.992 74.5,226C 63.1667,226.667 51.8333,226.667 40.5,226C 39.6667,225.167 38.8333,224.333 38,223.5C 37.3333,181.5 37.3333,139.5 38,97.5C 38.6979,96.3094 39.5313,95.3094 40.5,94.5 Z"/></g>
</svg>
